<svg width="24" height="24" viewBox="0 0 24 24" fill="none" xmlns="http://www.w3.org/2000/svg">
<circle cx="12" cy="12" r="11.5" stroke="#667085"/>
<g clip-path="url(#clip0_233_248)">
<path d="M16.6059 7.54541H6.84834C6.66349 7.54541 6.48621 7.61884 6.3555 7.74955C6.2248 7.88025 6.15137 8.05753 6.15137 8.24238V15.2121C6.15137 15.3969 6.2248 15.5742 6.3555 15.7049C6.48621 15.8356 6.66349 15.909 6.84834 15.909H16.6059C16.7908 15.909 16.968 15.8356 17.0987 15.7049C17.2295 15.5742 17.3029 15.3969 17.3029 15.2121V8.24238C17.3029 8.05753 17.2295 7.88025 17.0987 7.74955C16.968 7.61884 16.7908 7.54541 16.6059 7.54541ZM16.0692 15.2121H7.42682L9.86622 12.689L9.3644 12.2047L6.84834 14.8078V8.77208L11.18 13.0828C11.3106 13.2126 11.4872 13.2855 11.6714 13.2855C11.8555 13.2855 12.0321 13.2126 12.1627 13.0828L16.6059 8.66405V14.7625L14.0411 12.1977L13.5497 12.689L16.0692 15.2121ZM7.30485 8.24238H16.0414L11.6714 12.588L7.30485 8.24238Z" fill="#667085"/>
</g>
<defs>
<clipPath id="clip0_233_248">
<rect width="12.5455" height="9.81818" fill="white" transform="translate(5.4541 7.09082)"/>
</clipPath>
</defs>
</svg>
