<svg width="43" height="43" viewBox="0 0 43 43" fill="none" xmlns="http://www.w3.org/2000/svg">
<circle cx="21.485" cy="21.4029" r="20.9029" stroke="#20207B"/>
<path d="M22.1175 14.653C22.0565 14.5946 21.9752 14.562 21.8907 14.562C21.8062 14.562 21.725 14.5946 21.6639 14.653L14.1133 21.8661C14.0812 21.8968 14.0557 21.9337 14.0383 21.9745C14.0209 22.0153 14.0119 22.0592 14.012 22.1036L14.0107 28.8733C14.0107 29.2214 14.149 29.5553 14.3951 29.8014C14.6413 30.0475 14.9751 30.1858 15.3232 30.1858H19.2646C19.4387 30.1858 19.6056 30.1167 19.7286 29.9936C19.8517 29.8705 19.9208 29.7036 19.9208 29.5296V23.9517C19.9208 23.8647 19.9554 23.7812 20.0169 23.7197C20.0785 23.6581 20.1619 23.6236 20.2489 23.6236H23.5301C23.6171 23.6236 23.7005 23.6581 23.7621 23.7197C23.8236 23.7812 23.8582 23.8647 23.8582 23.9517V29.5296C23.8582 29.7036 23.9273 29.8705 24.0504 29.9936C24.1734 30.1167 24.3403 30.1858 24.5144 30.1858H28.4542C28.8023 30.1858 29.1361 30.0475 29.3822 29.8014C29.6283 29.5553 29.7666 29.2214 29.7666 28.8733V22.1036C29.7667 22.0592 29.7577 22.0153 29.7403 21.9745C29.7229 21.9337 29.6974 21.8968 29.6653 21.8661L22.1175 14.653Z" fill="#20207B"/>
<path d="M31.5238 20.5131L28.456 17.5782V13.1245C28.456 12.9504 28.3868 12.7835 28.2638 12.6604C28.1407 12.5374 27.9738 12.4682 27.7997 12.4682H25.8311C25.657 12.4682 25.4901 12.5374 25.3671 12.6604C25.244 12.7835 25.1749 12.9504 25.1749 13.1245V14.4369L22.7993 12.1656C22.577 11.9408 22.2465 11.812 21.8892 11.812C21.5332 11.812 21.2035 11.9408 20.9812 12.166L12.2575 20.5123C12.0024 20.7584 11.9704 21.1632 12.2026 21.4298C12.2609 21.4971 12.3323 21.5518 12.4124 21.5906C12.4925 21.6294 12.5797 21.6516 12.6686 21.6556C12.7575 21.6597 12.8464 21.6456 12.9297 21.6143C13.013 21.5829 13.0891 21.5349 13.1533 21.4732L21.6637 13.341C21.7247 13.2826 21.806 13.25 21.8905 13.25C21.975 13.25 22.0562 13.2826 22.1173 13.341L30.6285 21.4732C30.7538 21.5935 30.9218 21.6591 31.0955 21.6557C31.2691 21.6523 31.4344 21.5802 31.555 21.4552C31.8068 21.1943 31.7859 20.7637 31.5238 20.5131Z" fill="#20207B"/>
</svg>
