<svg width="45" height="45" viewBox="0 0 45 45" fill="none" xmlns="http://www.w3.org/2000/svg">
<circle cx="22.8877" cy="22.5" r="21.5" stroke="#20207B"/>
<g clip-path="url(#clip0_207_91)">
<path d="M32.3327 14.833H14.4438C14.1049 14.833 13.7799 14.9676 13.5403 15.2073C13.3006 15.4469 13.166 15.7719 13.166 16.1108V28.8886C13.166 29.2275 13.3006 29.5525 13.5403 29.7921C13.7799 30.0317 14.1049 30.1663 14.4438 30.1663H32.3327C32.6716 30.1663 32.9966 30.0317 33.2362 29.7921C33.4758 29.5525 33.6105 29.2275 33.6105 28.8886V16.1108C33.6105 15.7719 33.4758 15.4469 33.2362 15.2073C32.9966 14.9676 32.6716 14.833 32.3327 14.833ZM31.3488 28.8886H15.5043L19.9766 24.263L19.0566 23.375L14.4438 28.1475V17.0819L22.3852 24.985C22.6246 25.2229 22.9484 25.3565 23.286 25.3565C23.6236 25.3565 23.9474 25.2229 24.1868 24.985L32.3327 16.8838V28.0644L27.6305 23.3622L26.7296 24.263L31.3488 28.8886ZM15.2807 16.1108H31.2977L23.286 24.0777L15.2807 16.1108Z" fill="#20207B"/>
</g>
<defs>
<clipPath id="clip0_207_91">
<rect width="23" height="18" fill="white" transform="translate(11.8877 14)"/>
</clipPath>
</defs>
</svg>
