<svg width="44" height="45" viewBox="0 0 44 45" fill="none" xmlns="http://www.w3.org/2000/svg">
<circle cx="22" cy="22.5" r="21.25" fill="white" stroke="#20207B" stroke-width="1.5"/>
<g clip-path="url(#clip0_408_195)">
<path d="M31.444 14.833H13.5551C13.2162 14.833 12.8912 14.9676 12.6516 15.2073C12.412 15.4469 12.2773 15.7719 12.2773 16.1108V28.8886C12.2773 29.2275 12.412 29.5525 12.6516 29.7921C12.8912 30.0317 13.2162 30.1663 13.5551 30.1663H31.444C31.7829 30.1663 32.1079 30.0317 32.3475 29.7921C32.5872 29.5525 32.7218 29.2275 32.7218 28.8886V16.1108C32.7218 15.7719 32.5872 15.4469 32.3475 15.2073C32.1079 14.9676 31.7829 14.833 31.444 14.833ZM30.4601 28.8886H14.6157L19.0879 24.263L18.1679 23.375L13.5551 28.1475V17.0819L21.4965 24.985C21.7359 25.2229 22.0598 25.3565 22.3973 25.3565C22.7349 25.3565 23.0588 25.2229 23.2982 24.985L31.444 16.8838V28.0644L26.7418 23.3622L25.841 24.263L30.4601 28.8886ZM14.3921 16.1108H30.409L22.3973 24.0777L14.3921 16.1108Z" fill="#20207B"/>
</g>
<defs>
<clipPath id="clip0_408_195">
<rect width="23" height="18" fill="white" transform="translate(11 14)"/>
</clipPath>
</defs>
</svg>
