<svg width="71" height="50" viewBox="0 0 71 50" fill="none" xmlns="http://www.w3.org/2000/svg">
<rect x="0.5" width="70" height="50" rx="10" fill="white"/>
<path d="M40.2796 16.2313C40.1287 16.6178 40.2494 17.0289 40.6014 17.3084L42.0596 18.4677L41.7177 20.1039C41.6372 20.4985 41.8283 20.8932 42.2305 21.1316C42.4518 21.2632 42.7233 21.3372 42.9848 21.3372C43.1859 21.3372 43.3971 21.2961 43.5882 21.2138L45.3883 20.441L47.1884 21.2138C47.6209 21.403 48.1438 21.3701 48.5461 21.1316C48.9483 20.8932 49.1394 20.4985 49.0589 20.1039L48.717 18.4677L50.1752 17.3084C50.5272 17.0289 50.6479 16.6178 50.497 16.2313C50.3462 15.8449 49.9439 15.5736 49.4612 15.516L47.4499 15.2776L46.5549 13.7894C46.3336 13.4276 45.8911 13.2056 45.3984 13.2056C44.9056 13.2056 44.4631 13.4276 44.2419 13.7894L43.3468 15.2776L41.3355 15.516C40.8226 15.5736 40.4304 15.8531 40.2796 16.2313ZM43.6083 16.4286C44.0307 16.3793 44.3927 16.1655 44.5737 15.8531L45.3782 14.5294L46.1828 15.8531C46.3738 16.1655 46.7359 16.3793 47.1482 16.4286L48.9383 16.6424L47.641 17.6784C47.3393 17.9168 47.1985 18.2704 47.2689 18.6075L47.5706 20.0628L45.9716 19.3721C45.5995 19.2077 45.1469 19.2077 44.7749 19.3721L43.1759 20.0628L43.4776 18.6075C43.5479 18.2704 43.4072 17.9168 43.1055 17.6784L41.8082 16.6424L43.6083 16.4286Z" fill="#20207B"/>
<path d="M36.2663 9.13566L36.025 10.2867C35.9546 10.6403 36.1256 10.9938 36.4775 11.1994C36.6787 11.3145 36.91 11.3803 37.1513 11.3803C37.3323 11.3803 37.5134 11.3474 37.6843 11.2734L38.9515 10.7307L40.2186 11.2734C40.6108 11.4378 41.0633 11.4132 41.4254 11.1994C41.7773 10.9856 41.9584 10.6403 41.8779 10.2867L41.6366 9.13566L42.6623 8.32168C42.9741 8.07502 43.0847 7.70504 42.954 7.36793C42.8232 7.03083 42.4612 6.78417 42.0288 6.73484L40.6108 6.5704L39.9772 5.51799C39.7861 5.19733 39.3939 5 38.9515 5C38.509 5 38.1168 5.19733 37.9257 5.51799L37.2921 6.5704L35.8741 6.73484C35.4417 6.78417 35.0897 7.03083 34.9489 7.36793C34.8081 7.70504 34.9288 8.07502 35.2406 8.32168L36.2663 9.13566ZM37.6542 7.69681C38.0262 7.6557 38.3481 7.45838 38.519 7.18705L38.9615 6.45529L39.404 7.18705C39.575 7.4666 39.8968 7.6557 40.2689 7.69681L41.2544 7.81192L40.5404 8.37924C40.2689 8.59301 40.1482 8.90545 40.2085 9.20966L40.3795 10.0072L39.4945 9.62898C39.1626 9.48921 38.7604 9.48921 38.4285 9.62898L37.5435 10.0072L37.7145 9.20966C37.7748 8.90545 37.6542 8.60123 37.3826 8.37924L36.6686 7.81192L37.6542 7.69681Z" fill="#20207B"/>
<path d="M40.9826 27.5365L37.3723 30.4882L34.7777 28.3669C34.4961 28.1367 34.0436 28.1367 33.762 28.3669C33.4804 28.5971 33.4804 28.9671 33.762 29.1973L36.8594 31.7297C37.0002 31.8448 37.1812 31.9024 37.3622 31.9024C37.5432 31.9024 37.7243 31.8448 37.865 31.7297L41.9782 28.3669C42.2598 28.1367 42.2598 27.7667 41.9782 27.5365C41.7167 27.3063 41.2642 27.3063 40.9826 27.5365Z" fill="#20207B"/>
<path d="M54.6703 35.0514C54.6402 35.0267 54.61 35.002 54.5798 34.9856C54.5798 34.3689 54.2882 33.777 53.7451 33.333C53.2121 32.8972 52.4881 32.6506 51.7338 32.6506C51.1505 32.6506 50.5874 32.7985 50.1147 33.0617C49.6622 32.8232 49.1292 32.6917 48.576 32.6917C47.8118 32.6917 47.0977 32.9301 46.5647 33.3741L40.5207 38.3155C40.3498 38.4553 40.1285 38.5622 39.8972 38.6115H33.5013C33.5314 38.5622 33.5717 38.5211 33.6219 38.4799C33.7627 38.3648 33.9437 38.3073 34.1348 38.3073H38.1977C39.7464 38.3073 41.0537 37.296 41.104 36.0545C41.1141 35.9229 41.104 35.7996 41.0839 35.6762C43.3667 34.8869 45.1568 33.2836 45.8306 31.2364C45.9312 30.9239 45.7099 30.6033 45.3278 30.5211C44.9456 30.4388 44.5534 30.6197 44.4529 30.9322C43.8997 32.6094 42.4214 33.9332 40.5509 34.5909C40.4805 34.5087 40.4001 34.4347 40.3096 34.3607C39.7665 33.9003 39.0424 33.6536 38.258 33.6536H33.4208C32.0028 32.6341 31.1078 31.1459 31.1078 29.4933C31.1078 26.4347 34.1549 23.9435 37.896 23.9435C41.1644 23.9435 43.9601 25.8427 44.5635 28.4656C44.6339 28.7862 45.006 28.9918 45.3982 28.9342C45.7904 28.8767 46.0418 28.5724 45.9714 28.2518C45.2473 25.0781 41.8482 22.7759 37.896 22.7759C33.3605 22.7759 29.6798 25.7934 29.6798 29.4933C29.6798 31.0637 30.3435 32.5108 31.4598 33.6536H25.2448V32.6917C25.2448 32.0915 24.6414 31.5981 23.9073 31.5981H16.8375C16.1034 31.5981 15.5 32.0915 15.5 32.6917V43.8736C15.5 44.4738 16.1034 44.9671 16.8375 44.9671H23.9073C24.6414 44.9671 25.2448 44.4738 25.2448 43.8736V43.5447L27.0852 44.1449C28.8149 44.7122 30.6452 45 32.5057 45H44.483C45.8105 45 47.0575 44.5807 48.0028 43.8078L50.3359 41.9003C50.6175 41.6701 50.6175 41.3001 50.3359 41.0699C50.0544 40.8397 49.6018 40.8397 49.3202 41.0699L46.9871 42.9774C46.3234 43.52 45.4283 43.8242 44.483 43.8242H32.5057C30.8262 43.8242 29.1769 43.5694 27.6182 43.0514L25.2448 42.2785V34.8212H38.248C38.6301 34.8212 38.9921 34.9445 39.2637 35.1747C39.5352 35.4049 39.676 35.7009 39.6559 36.0216C39.6257 36.6382 38.972 37.1398 38.1876 37.1398H34.1248C33.5415 37.1398 32.9984 37.3289 32.5962 37.666C32.1939 38.0031 31.9727 38.4471 31.9727 38.9239L31.9827 39.779C32.0028 40.7328 32.9683 41.5139 34.1348 41.5139H43.5779C44.3422 41.5139 45.0563 41.2754 45.5892 40.8314L51.6332 35.89C52.1864 35.4378 53.0814 35.4378 53.6345 35.89C54.1876 36.3422 54.1876 37.074 53.6345 37.5262L51.6735 39.1295C51.3919 39.3597 51.3919 39.7297 51.6735 39.9599C51.9551 40.1901 52.4076 40.1901 52.6892 39.9599L54.6703 38.3402C55.7766 37.4358 55.7766 35.9558 54.6703 35.0514ZM23.8067 43.7831H16.9381V32.7657H23.8067V43.7831ZM51.7338 33.8181C52.116 33.8181 52.4679 33.9414 52.7294 34.1552C52.8099 34.221 52.8803 34.3032 52.9406 34.3772C52.116 34.3114 51.2612 34.5334 50.6276 35.0432L44.5836 39.9846C44.3121 40.2066 43.9601 40.3217 43.588 40.3217H34.1449C33.7627 40.3217 33.451 40.075 33.4309 39.7708H42.6728C43.4371 39.7708 44.1512 39.5324 44.6842 39.0884L50.7282 34.147C50.9997 33.9332 51.3517 33.8181 51.7338 33.8181ZM47.5805 34.1963C47.852 33.9743 48.204 33.8592 48.576 33.8592C48.7269 33.8592 48.8677 33.8756 48.9984 33.9085L43.6684 38.2662C43.3969 38.4882 43.0449 38.6033 42.6728 38.6033H42.1801L47.5805 34.1963Z" fill="#20207B"/>
<path d="M16.9586 18.3197H18.6481C18.7487 18.5664 18.8794 18.813 19.0202 19.0515L17.8235 20.0299C17.5922 20.219 17.4615 20.4739 17.4615 20.7452C17.4615 21.0165 17.5922 21.2714 17.8235 21.4605L19.6035 22.9158C20.0862 23.3105 20.8706 23.3105 21.3634 22.9158L22.5601 21.9374C22.8518 22.0525 23.1535 22.1594 23.4552 22.2416V23.6229C23.4552 24.182 24.0083 24.6342 24.6921 24.6342H27.2063C27.8901 24.6342 28.4432 24.182 28.4432 23.6229V22.2416C28.7449 22.1594 29.0466 22.0525 29.3383 21.9374L30.535 22.9158C31.0177 23.3105 31.8021 23.3105 32.2949 22.9158L34.0649 21.4605C34.2962 21.2714 34.4269 21.0165 34.4269 20.7452C34.4269 20.4739 34.2962 20.219 34.0649 20.0299L32.8681 19.0515C33.0089 18.813 33.1397 18.5664 33.2402 18.3197H34.9297C35.6136 18.3197 36.1667 17.8675 36.1667 17.3084V15.2529C36.1667 14.6938 35.6136 14.2416 34.9297 14.2416H33.2402C33.1397 13.9949 33.0089 13.7483 32.8681 13.5098L34.0649 12.5314C34.5476 12.1368 34.5476 11.4955 34.0649 11.0926L32.2848 9.63728C31.8021 9.24262 31.0177 9.24262 30.5249 9.63728L29.3282 10.6157C29.0366 10.5006 28.7349 10.3937 28.4332 10.3115V8.93019C28.4332 8.37109 27.8801 7.91888 27.1962 7.91888H24.6821C23.9982 7.91888 23.4451 8.37109 23.4451 8.93019V10.3115C23.1434 10.3937 22.8417 10.5006 22.5501 10.6157L21.3534 9.63728C20.8706 9.24262 20.0862 9.24262 19.5935 9.63728L17.8235 11.0926C17.3408 11.4872 17.3408 12.1285 17.8235 12.5314L19.0202 13.5098C18.8794 13.7483 18.7487 13.9949 18.6481 14.2416H16.9586C16.2748 14.2416 15.7217 14.6938 15.7217 15.2529V17.3084C15.7217 17.8675 16.2748 18.3197 16.9586 18.3197ZM17.1497 15.4091H18.7889C19.332 15.4091 19.8046 15.1213 19.9756 14.702C20.0762 14.4389 20.2069 14.184 20.3678 13.9374C20.6192 13.5427 20.5287 13.0659 20.1466 12.7534L18.97 11.8079L20.4784 10.5746L21.6349 11.5201C22.0171 11.8326 22.6004 11.9066 23.0831 11.701C23.3848 11.5777 23.6965 11.4708 24.0183 11.3803C24.5312 11.2406 24.8832 10.8541 24.8832 10.4101V9.08641H27.0051V10.4266C27.0051 10.8706 27.3571 11.257 27.87 11.3968C28.1918 11.479 28.5036 11.5859 28.8053 11.7174C29.288 11.923 29.8713 11.849 30.2534 11.5366L31.4099 10.591L32.9184 11.8243L31.7619 12.7699C31.3798 13.0823 31.2892 13.5592 31.5407 13.9538C31.6915 14.2005 31.8222 14.4554 31.9329 14.7185C32.1038 15.1378 32.5765 15.4256 33.1195 15.4256H34.7588V17.1604H33.1195C32.5765 17.1604 32.1038 17.4482 31.9329 17.8675C31.8323 18.1306 31.7016 18.3855 31.5407 18.6321C31.2892 19.0268 31.3798 19.5037 31.7619 19.8161L32.9184 20.7616L31.4099 21.9949L30.2534 21.0494C29.8713 20.737 29.288 20.663 28.8053 20.8685C28.5036 20.9919 28.1918 21.0987 27.87 21.1892C27.3571 21.329 27.0051 21.7154 27.0051 22.1594V23.4996H24.8832V22.1594C24.8832 21.7154 24.5312 21.329 24.0183 21.1892C23.6965 21.107 23.3848 21.0001 23.0831 20.8685C22.6004 20.663 22.0171 20.737 21.6349 21.0494L20.4784 21.9949L18.97 20.7616L20.1365 19.8079C20.5187 19.4954 20.6092 19.0186 20.3578 18.6239C20.2069 18.3773 20.0762 18.1224 19.9656 17.8593C19.7946 17.4399 19.3219 17.1522 18.7789 17.1522H17.1497V15.4091Z" fill="#20207B"/>
<path d="M25.9476 20.2436C27.8684 20.2436 29.6082 19.3145 30.3825 17.8839C30.5434 17.5879 30.3825 17.2426 30.0205 17.111C29.6584 16.9795 29.2361 17.111 29.0752 17.407C28.5321 18.4183 27.3052 19.0679 25.9576 19.0679C24.077 19.0679 22.5484 17.8181 22.5484 16.2806C22.5484 14.7431 24.077 13.4934 25.9576 13.4934C27.3052 13.4934 28.522 14.1429 29.0752 15.146C29.2361 15.442 29.6584 15.5735 30.0205 15.442C30.3825 15.3104 30.5434 14.9651 30.3825 14.6691C29.6082 13.2385 27.8684 12.3176 25.9576 12.3176C23.2826 12.3176 21.1104 14.0936 21.1104 16.2806C21.1104 18.4677 23.2725 20.2436 25.9476 20.2436Z" fill="#20207B"/>
<path d="M23.8369 16.2805C23.8369 17.2343 24.7822 18.0071 25.9488 18.0071C27.1154 18.0071 28.0607 17.2343 28.0607 16.2805C28.0607 15.3268 27.1154 14.5539 25.9488 14.5539C24.7822 14.5539 23.8369 15.3268 23.8369 16.2805ZM26.6226 16.2805C26.6226 16.5847 26.3209 16.8314 25.9488 16.8314C25.5767 16.8314 25.275 16.5847 25.275 16.2805C25.275 15.9763 25.5767 15.7296 25.9488 15.7296C26.3209 15.7296 26.6226 15.9763 26.6226 16.2805Z" fill="#20207B"/>
</svg>
