<svg width="71" height="50" viewBox="0 0 71 50" fill="none" xmlns="http://www.w3.org/2000/svg">
<rect x="0.5" width="70" height="50" rx="10" fill="white"/>
<path fill-rule="evenodd" clip-rule="evenodd" d="M38.4533 3.12376C38.2085 3.37937 38.1701 3.60068 38.0759 5.29886C38.0113 6.4641 38.2238 7.18752 38.7173 7.48173C38.9157 7.59997 38.5928 8.47809 38.075 9.22863C37.6341 9.86767 37.405 10.369 37.2814 10.9655C37.2583 11.0769 37.2267 11.6642 37.211 12.2706L37.1825 13.3732L32.5925 13.386C27.9868 13.3988 27.6674 13.3925 27.7443 13.2917C27.9419 13.0332 28.1006 12.2673 28.021 11.9566C27.8906 11.4478 27.5093 11.2895 26.495 11.3232C25.5507 11.3545 25.3542 11.3518 23.8175 11.2853C20.4506 11.1396 19.6011 11.3123 18.4625 12.3735C17.822 12.9705 17.3708 13.0396 16.9553 12.6043C16.5168 12.1448 16.235 12.0989 14.3427 12.1791C12.9309 12.239 12.8323 12.2569 12.6235 12.4912L12.5 12.6298L12.5003 13.9016L12.5006 15.1733L12.6466 15.2707C13.3502 15.7404 13.7342 15.3707 13.7996 14.1607L13.8275 13.6432L14.739 13.631L15.6506 13.6188L15.639 17.2763L15.6275 20.9337H14.7275H13.8275V18.9985C13.8275 16.8603 13.8273 16.8583 13.5457 16.6021C13.4134 16.4818 13.3485 16.4559 13.1785 16.4559C13.0237 16.4559 12.9131 16.4926 12.7369 16.6021L12.5018 16.7484L12.5121 19.3571L12.5225 21.9659L12.6916 22.0608C13.0536 22.2638 14.1438 22.4413 15.0287 22.4413C15.9264 22.4412 16.5745 22.2365 16.8993 21.8505C17.1431 21.5607 17.6875 21.7264 18.7858 22.4247C19.9941 23.193 20.1899 23.2499 21.77 23.2905L22.8725 23.3188L22.8728 25.974C22.8731 28.0598 22.8858 28.6581 22.9319 28.7642C23.1365 29.2341 23.702 29.3672 24.0317 29.0231C24.2882 28.7552 24.3126 28.6055 24.3026 27.3578L24.2935 26.2215H25.5068C26.174 26.2215 26.72 26.2367 26.72 26.2553C26.72 26.2738 26.69 26.4308 26.6533 26.604C26.3359 28.1024 27.2607 29.4537 28.8125 29.7595C30.7889 30.149 32.326 28.4449 31.8717 26.3678L31.8398 26.2215H33.0599H34.28V28.0467C34.28 29.991 34.2969 30.1792 34.4946 30.4453C34.7721 30.8187 35.0839 30.7966 35.6679 30.3622C36.2969 29.8944 36.668 29.8145 37.1735 30.0381C38.259 30.5183 38.2025 32.0127 37.0832 32.4316C36.596 32.6138 36.2492 32.5197 35.6075 32.031C35.0957 31.6413 34.7941 31.6229 34.513 31.9639C34.2985 32.2242 34.28 32.416 34.28 34.393V36.2122H29.285H24.29L24.2893 33.5682C24.2888 31.5872 24.2747 30.8843 24.2331 30.7648C24.0029 30.1045 23.2631 29.9897 22.9818 30.5708C22.8432 30.857 22.8059 31.2432 22.8368 32.0671C22.8637 32.7837 22.8619 32.8061 22.7786 32.7724C21.7279 32.3472 21.2296 32.3987 20.9527 32.9609C20.8499 33.1697 20.8475 33.2039 20.845 34.502C20.8438 35.2322 20.8157 36.3055 20.7826 36.8872C20.6256 39.6517 20.8059 40.6696 21.6356 41.7025C22.5561 42.8486 22.6244 43.1267 22.103 43.6058C21.7244 43.9537 21.7243 43.954 21.7158 45.7222C21.7077 47.4045 21.7008 47.3522 21.9884 47.8102L22.1075 48L26.785 47.9902L31.4624 47.9804L31.5497 47.831C31.8444 47.3264 32.036 45.486 31.8762 44.6952C31.7579 44.109 31.6681 43.918 31.3804 43.6401C31.0719 43.3419 31.2278 42.7803 31.9061 41.7459C32.676 40.572 32.795 40.1521 32.795 38.6086V37.6523H37.5473C42.0555 37.6523 42.298 37.6563 42.2676 37.731C41.8438 38.7735 41.9122 39.3013 42.5068 39.575C42.6495 39.6407 42.8688 39.6529 44.09 39.6626C44.8696 39.6689 45.8315 39.695 46.2275 39.7207C48.947 39.8967 50.2485 39.6724 51.2 38.864C52.2718 37.9533 52.5807 37.8773 53.0919 38.3984C53.4731 38.7868 53.421 38.7773 55.2004 38.7852C56.8917 38.7929 56.8666 38.7959 57.2867 38.5298L57.4999 38.3948V37.0321L57.5 35.6694L57.3356 35.5245C57.0724 35.2925 57.0087 35.2581 56.842 35.2581C56.467 35.2581 56.274 35.7553 56.201 36.9097L56.1725 37.3597L55.2612 37.3719L54.35 37.3841V33.7379V30.0918H55.2633H56.1767L56.1745 31.9481C56.1727 33.6148 56.1804 33.8213 56.2501 33.9691C56.4498 34.3927 56.8812 34.4743 57.3428 34.1758L57.4994 34.0745L57.4885 31.5568L57.4775 29.0393L57.3281 28.952C56.3634 28.3885 53.8392 28.4562 53.2104 29.0623C52.8159 29.4426 52.3707 29.3319 51.1684 28.5549C50.0212 27.8135 49.6401 27.7089 48.0837 27.7074L47.15 27.7066V25.0326C47.15 21.8959 47.1417 21.8462 46.6001 21.724C45.8825 21.5622 45.6824 21.9885 45.6986 23.6451L45.7099 24.7814H44.4899H43.27L43.3087 24.6127C43.9157 21.9694 40.5893 20.0301 38.7665 21.9646C38.1159 22.655 37.9259 23.4577 38.1344 24.6352L38.1602 24.7814H36.9401H35.72V22.9302C35.72 20.9654 35.7082 20.8357 35.504 20.5577C35.2378 20.1951 34.9092 20.2082 34.3899 20.6023C33.8543 21.0088 33.7269 21.066 33.3575 21.0661C31.9408 21.0666 31.5365 19.1936 32.8271 18.6085C33.3284 18.3811 33.7555 18.4657 34.282 18.8967C34.991 19.477 35.4395 19.4077 35.6631 18.6835C35.7033 18.5532 35.7189 17.9911 35.7193 16.6471L35.72 14.7908H40.715H45.71V17.3602C45.71 20.4797 45.732 20.6018 46.3163 20.7114C46.9562 20.8314 47.1679 20.4303 47.1574 19.1176C47.1507 18.2617 47.1554 18.2036 47.2289 18.2334C48.7944 18.8701 49.246 18.5045 49.175 16.6584C49.1626 16.3366 49.1666 15.6987 49.1838 15.2408C49.3452 10.9391 49.2652 10.375 48.3344 9.25091C47.4689 8.20571 47.3958 7.89924 47.8949 7.4095C48.2854 7.02641 48.2757 7.07895 48.2828 5.29909C48.2895 3.60923 48.2921 3.63105 48.0275 3.21534L47.8925 3.00326L43.2322 3.00169L38.5719 3L38.4533 3.12376ZM46.8696 5.2389L46.8819 6.1502H43.2359H39.59V5.22742V4.30452L43.2237 4.31611L46.8575 4.32759L46.8696 5.2389ZM46.1607 8.05158C46.1617 8.74069 46.2758 8.98426 46.9034 9.63793C47.6695 10.4357 47.7592 10.67 47.8735 12.172C47.9297 12.9104 47.9201 13.2644 47.7717 15.9052L47.7179 16.862L47.567 16.7158C47.197 16.3571 47.106 15.9041 47.1848 14.8133C47.28 13.493 47.0661 13.0695 46.1945 12.8531C45.4264 12.6621 45.1013 12.5707 45.0597 12.5336C45.0362 12.5127 44.9875 12.4956 44.9514 12.4956C44.8048 12.4956 43.9573 12.033 43.6704 11.7964C43.306 11.4958 43.1567 11.2751 43.0136 10.826C42.706 9.86058 42.6134 9.67416 42.3672 9.52396C42.0234 9.31436 41.6701 9.44037 41.5267 9.82368C41.1372 10.8647 42.0039 12.5071 43.3223 13.2265C43.4013 13.2696 43.4533 13.3252 43.4377 13.3502C43.4033 13.406 38.7413 13.4126 38.6537 13.357C38.6063 13.3269 38.6039 13.2276 38.6415 12.8514C38.7441 11.8238 38.7801 11.3824 38.7801 11.1553C38.78 10.8241 38.8294 10.7276 39.4927 9.7627L40.0795 8.90933L40.1355 8.24982L40.1915 7.5903H43.1758H46.16L46.1607 8.05158ZM24.3125 12.6759C26.6042 12.7935 26.3969 12.7615 26.1916 12.9668C26.1237 13.0346 25.9668 13.1438 25.8428 13.2091L25.6175 13.3282L24.4656 13.3148C23.0717 13.2986 22.8223 13.3588 22.5476 13.778C22.4486 13.929 22.4349 13.9723 22.2432 14.7376C21.966 15.8441 21.5818 16.6049 21.0443 17.1112C20.7973 17.3439 20.6188 17.4251 19.8125 17.6714C18.842 17.968 18.5675 18.7948 19.3661 19.0165C20.4116 19.3068 21.9066 18.5484 22.6065 17.3726C22.7078 17.2026 22.809 17.0685 22.8315 17.0747C22.8555 17.0812 22.8725 18.1007 22.8725 19.5273V21.9687L22.2425 21.9835C21.2007 22.0077 20.4829 21.8673 19.9666 21.5382C19.8535 21.466 19.5299 21.2244 19.2477 21.0014C18.4893 20.4017 18.3085 20.3261 17.6328 20.3261H17.09V17.3334V14.3407H17.562C18.2826 14.3407 18.4445 14.2611 19.205 13.5323C19.8012 12.9608 20.0212 12.8462 20.7575 12.7227C21.564 12.5874 22.382 12.5766 24.3125 12.6759ZM34.28 16.0098V17.2288L34.0887 17.1911C32.8239 16.9418 31.5875 17.5295 31.0233 18.6484C29.9242 20.828 31.678 22.9101 34.1562 22.3678L34.28 22.3408V23.5611V24.7814L32.4462 24.7825C30.5011 24.7837 30.3089 24.8005 30.0574 24.9924C29.6822 25.2786 29.7045 25.5845 30.1433 26.1745C30.5028 26.6579 30.6173 26.9597 30.5683 27.2947C30.3659 28.6761 28.5572 28.886 28.0703 27.5848C27.8757 27.0643 27.9878 26.699 28.564 25.975C28.8659 25.5956 28.8641 25.2955 28.5584 25.0337C28.281 24.7963 28.1369 24.7814 26.1103 24.7814H24.29V19.7861V14.7908H29.285H34.28V16.0098ZM41.1494 22.6277C42.1179 22.9901 42.2716 23.9112 41.5276 24.8939C41.1364 25.4108 41.1149 25.6522 41.4333 25.9551C41.7017 26.2104 41.8029 26.2215 43.8624 26.2215H45.71V31.2168V36.2122H40.715H35.72V34.9915V33.7708L35.8662 33.8005C36.764 33.9828 37.3284 33.9151 38.0136 33.5429C40.6899 32.0894 38.8326 27.8855 35.8438 28.6313L35.72 28.6621V27.4419V26.2215H37.5676C39.5965 26.2215 39.7071 26.2099 39.9889 25.9688C40.3279 25.6787 40.2983 25.4203 39.8589 24.8305C39.4983 24.3466 39.3831 24.0449 39.4306 23.7082C39.5504 22.8578 40.3764 22.3384 41.1494 22.6277ZM48.86 29.0791C49.7244 29.2277 49.8637 29.2966 50.795 30.0357C51.4964 30.5924 51.6344 30.6493 52.3475 30.6768L52.9325 30.6993V33.6695V36.6397L52.415 36.6652C52.1304 36.6792 51.857 36.7064 51.8075 36.7255C51.4806 36.8521 51.2982 36.9891 50.7311 37.5348C50.0826 38.1586 49.7709 38.2674 48.3238 38.3748C47.5833 38.4297 47.2414 38.4205 44.5957 38.2734L43.6389 38.2202L43.7851 38.0693C44.1622 37.6803 44.4059 37.6404 46.07 37.6952C47.1553 37.731 47.498 37.4886 47.6892 36.5497C47.94 35.3186 48.5593 34.1274 49.1542 33.7323C49.328 33.6168 49.5175 33.5446 50.21 33.3298C51.4521 32.9446 51.3925 31.9476 50.127 31.9394C49.1115 31.9327 47.9496 32.672 47.3548 33.7032C47.2869 33.8208 47.2131 33.917 47.1907 33.917C47.1669 33.917 47.15 32.8978 47.15 31.4643V29.0117L47.8137 29.0125C48.1877 29.0129 48.6445 29.042 48.86 29.0791ZM22.4763 34.3333C22.8173 34.6921 22.8275 34.7444 22.8275 36.1222V37.3597L22.9479 37.5878C23.1183 37.9108 23.3969 38.082 23.93 38.1912C24.6747 38.3437 25.4147 38.593 25.692 38.7848C25.7577 38.8302 25.8248 38.8673 25.8414 38.8673C25.916 38.8673 26.3176 39.1764 26.5667 39.4256C26.8543 39.7135 26.9108 39.8322 27.1745 40.7033C27.4631 41.6569 28.2212 41.9346 28.4867 41.184C28.8378 40.1915 28.0542 38.5883 26.8841 37.9051C26.7197 37.809 26.585 37.7128 26.585 37.6913C26.585 37.6697 27.6807 37.6523 29.0375 37.6523H31.49L31.4891 38.3385C31.4874 39.6425 31.275 40.3529 30.6816 41.0389C29.962 41.8711 29.8539 42.0998 29.825 42.8501L29.8025 43.4351H26.8325H23.8625L23.837 42.9176C23.7992 42.1547 23.7736 42.0976 23.1926 41.4829C22.5761 40.8305 22.4142 40.5953 22.3217 40.2174C22.0741 39.2058 22.0473 37.9139 22.2213 35.373C22.2454 35.0228 22.265 34.6128 22.265 34.4617C22.265 34.1458 22.286 34.133 22.4763 34.3333ZM30.4325 45.7753V46.6753H26.7875H23.1425L23.1302 45.8216C23.1235 45.3521 23.128 44.9419 23.1401 44.9101C23.158 44.8634 23.8673 44.8544 26.7974 44.8637L30.4325 44.8752V45.7753Z" fill="#20207B"/>
</svg>
