<svg width="24" height="24" viewBox="0 0 24 24" fill="none" xmlns="http://www.w3.org/2000/svg">
<circle cx="12" cy="12" r="11.5" stroke="#667085"/>
<g clip-path="url(#clip0_233_255)">
<path d="M12.3548 8.21558C12.3206 8.18283 12.275 8.16455 12.2277 8.16455C12.1803 8.16455 12.1347 8.18283 12.1005 8.21558L7.86706 12.2598C7.84908 12.277 7.83478 12.2976 7.82501 12.3205C7.81525 12.3434 7.81023 12.368 7.81026 12.3929L7.80957 16.1885C7.80957 16.3837 7.8871 16.5708 8.0251 16.7088C8.16309 16.8468 8.35026 16.9244 8.54542 16.9244H10.7553C10.8528 16.9244 10.9464 16.8856 11.0154 16.8166C11.0844 16.7476 11.1232 16.654 11.1232 16.5564V13.4291C11.1232 13.3803 11.1426 13.3335 11.1771 13.299C11.2116 13.2645 11.2584 13.2451 11.3072 13.2451H13.1468C13.1956 13.2451 13.2424 13.2645 13.2769 13.299C13.3114 13.3335 13.3307 13.3803 13.3307 13.4291V16.5564C13.3307 16.654 13.3695 16.7476 13.4385 16.8166C13.5075 16.8856 13.6011 16.9244 13.6987 16.9244H15.9076C16.1027 16.9244 16.2899 16.8468 16.4279 16.7088C16.5659 16.5708 16.6434 16.3837 16.6434 16.1885V12.3929C16.6435 12.368 16.6384 12.3434 16.6287 12.3205C16.6189 12.2976 16.6046 12.277 16.5866 12.2598L12.3548 8.21558Z" fill="#667085"/>
<path d="M17.6287 11.501L15.9087 9.85547V7.35841C15.9087 7.26083 15.8699 7.16724 15.8009 7.09825C15.7319 7.02925 15.6383 6.99048 15.5407 6.99048H14.437C14.3394 6.99048 14.2458 7.02925 14.1768 7.09825C14.1078 7.16724 14.069 7.26083 14.069 7.35841V8.09426L12.7371 6.82078C12.6125 6.69476 12.4272 6.62256 12.2269 6.62256C12.0273 6.62256 11.8424 6.69476 11.7178 6.82101L6.82667 11.5005C6.68364 11.6385 6.66571 11.8655 6.79586 12.015C6.82854 12.0527 6.86856 12.0834 6.91348 12.1051C6.9584 12.1269 7.00728 12.1393 7.05714 12.1416C7.107 12.1439 7.15681 12.136 7.20353 12.1184C7.25025 12.1008 7.2929 12.0739 7.32889 12.0393L12.1004 7.47982C12.1346 7.44707 12.1802 7.42879 12.2276 7.42879C12.275 7.42879 12.3205 7.44707 12.3547 7.47982L17.1267 12.0393C17.197 12.1067 17.2912 12.1435 17.3885 12.1416C17.4859 12.1397 17.5786 12.0993 17.6462 12.0292C17.7874 11.883 17.7756 11.6415 17.6287 11.501Z" fill="#667085"/>
</g>
<defs>
<clipPath id="clip0_233_255">
<rect x="6.33984" y="5.88672" width="11.7736" height="11.7736" fill="white"/>
</clipPath>
</defs>
</svg>
