<svg width="43" height="43" viewBox="0 0 43 43" fill="none" xmlns="http://www.w3.org/2000/svg">
<rect y="0.0950012" width="42.81" height="42.81" rx="21.405" fill="white"/>
<circle cx="21.4029" cy="21.4979" r="20.6529" stroke="#20207B" stroke-width="1.5"/>
<g clip-path="url(#clip0_408_226)">
<path d="M22.0355 14.7481C21.9744 14.6897 21.8932 14.6571 21.8087 14.6571C21.7242 14.6571 21.643 14.6897 21.5819 14.7481L14.0312 21.9612C13.9992 21.9919 13.9737 22.0287 13.9563 22.0695C13.9388 22.1103 13.9299 22.1543 13.9299 22.1986L13.9287 28.9684C13.9287 29.3165 14.067 29.6503 14.3131 29.8964C14.5592 30.1426 14.8931 30.2808 15.2412 30.2808H19.1826C19.3566 30.2808 19.5235 30.2117 19.6466 30.0886C19.7697 29.9656 19.8388 29.7987 19.8388 29.6246V24.0467C19.8388 23.9597 19.8734 23.8763 19.9349 23.8147C19.9964 23.7532 20.0799 23.7186 20.1669 23.7186H23.448C23.535 23.7186 23.6185 23.7532 23.68 23.8147C23.7416 23.8763 23.7761 23.9597 23.7761 24.0467V29.6246C23.7761 29.7987 23.8453 29.9656 23.9683 30.0886C24.0914 30.2117 24.2583 30.2808 24.4324 30.2808H28.3721C28.7202 30.2808 29.0541 30.1426 29.3002 29.8964C29.5463 29.6503 29.6846 29.3165 29.6846 28.9684V22.1986C29.6846 22.1543 29.6757 22.1103 29.6583 22.0695C29.6409 22.0287 29.6154 21.9919 29.5833 21.9612L22.0355 14.7481Z" fill="#20207B"/>
<path d="M31.4418 20.6081L28.3739 17.6731V13.2194C28.3739 13.0454 28.3048 12.8785 28.1817 12.7554C28.0587 12.6324 27.8918 12.5632 27.7177 12.5632H25.7491C25.575 12.5632 25.4081 12.6324 25.285 12.7554C25.162 12.8785 25.0928 13.0454 25.0928 13.2194V14.5319L22.7173 12.2605C22.495 12.0358 22.1644 11.907 21.8072 11.907C21.4512 11.907 21.1215 12.0358 20.8992 12.261L12.1755 20.6073C11.9204 20.8534 11.8884 21.2582 12.1206 21.5248C12.1788 21.592 12.2502 21.6468 12.3303 21.6856C12.4105 21.7244 12.4976 21.7466 12.5866 21.7506C12.6755 21.7547 12.7643 21.7406 12.8477 21.7093C12.931 21.6779 13.0071 21.6299 13.0713 21.5682L21.5816 13.436C21.6427 13.3776 21.7239 13.345 21.8084 13.345C21.8929 13.345 21.9742 13.3776 22.0352 13.436L30.5464 21.5682C30.6718 21.6885 30.8397 21.7541 31.0134 21.7507C31.1871 21.7473 31.3523 21.6752 31.4729 21.5502C31.7248 21.2893 31.7039 20.8587 31.4418 20.6081Z" fill="#20207B"/>
</g>
<defs>
<clipPath id="clip0_408_226">
<rect width="20.9991" height="20.9991" fill="white" transform="translate(11.3076 10.5946)"/>
</clipPath>
</defs>
</svg>
