<svg width="24" height="24" viewBox="0 0 24 24" fill="none" xmlns="http://www.w3.org/2000/svg">
<circle cx="12" cy="12" r="11.5" stroke="#667085"/>
<path d="M9.67877 6.40599L10.3397 6.1949C10.9582 5.99731 11.6197 6.31701 11.8848 6.94169L12.4125 8.18615C12.6426 8.72799 12.515 9.36556 12.0971 9.76197L10.9355 10.8653C11.0073 11.5256 11.2288 12.1754 11.6007 12.8148C11.954 13.4335 12.4279 13.9749 12.9942 14.4072L14.3909 13.9408C14.9198 13.7647 15.496 13.9678 15.8207 14.4446L16.5767 15.5553C16.9547 16.11 16.8865 16.8746 16.4183 17.3447L15.9164 17.8485C15.4169 18.3498 14.7038 18.5321 14.0436 18.3259C12.4855 17.8399 11.0533 16.3972 9.74627 13.9979C8.43739 11.5949 7.97593 9.55517 8.36068 7.88117C8.52268 7.17672 9.02464 6.61524 9.68 6.40599H9.67877Z" fill="#667085"/>
</svg>
