<svg width="44" height="45" viewBox="0 0 44 45" fill="none" xmlns="http://www.w3.org/2000/svg">
<circle cx="22" cy="22.5" r="21.25" fill="white" stroke="#20207B" stroke-width="1.5"/>
<path d="M17.7439 12.2439L18.9556 11.8569C20.0896 11.4946 21.3023 12.0807 21.7883 13.226L22.7558 15.5075C23.1777 16.5009 22.9437 17.6697 22.1776 18.3965L20.0479 20.4192C20.1796 21.6297 20.5857 22.8211 21.2674 23.9934C21.9152 25.1276 22.784 26.1203 23.8223 26.9127L26.3828 26.0577C27.3526 25.7349 28.4089 26.1072 29.0041 26.9814L30.3901 29.0176C31.0831 30.0346 30.9582 31.4364 30.0998 32.2981L29.1796 33.2217C28.2638 34.1409 26.9566 34.475 25.7461 34.097C22.8897 33.206 20.2639 30.5611 17.8677 26.1624C15.4681 21.7569 14.6221 18.0174 15.3274 14.9484C15.6244 13.6569 16.5447 12.6275 17.7462 12.2439H17.7439Z" fill="#20207B"/>
</svg>
