<svg width="45" height="45" viewBox="0 0 45 45" fill="none" xmlns="http://www.w3.org/2000/svg">
<circle cx="22.8877" cy="22.5" r="21.5" stroke="#20207B"/>
<path d="M18.6316 12.2439L19.8432 11.8569C20.9772 11.4947 22.19 12.0808 22.676 13.226L23.6435 15.5075C24.0654 16.5009 23.8314 17.6698 23.0652 18.3965L20.9356 20.4193C21.0672 21.6298 21.4734 22.8212 22.1551 23.9934C22.8029 25.1276 23.6717 26.1203 24.71 26.9128L27.2705 26.0578C28.2402 25.7349 29.2966 26.1073 29.8917 26.9814L31.2777 29.0177C31.9707 30.0347 31.8459 31.4364 30.9875 32.2982L30.0672 33.2218C29.1515 34.1409 27.8442 34.475 26.6337 34.097C23.7774 33.206 21.1516 30.5612 18.7554 26.1624C16.3557 21.7569 15.5097 18.0174 16.2151 14.9484C16.5121 13.6569 17.4324 12.6275 18.6339 12.2439H18.6316Z" fill="#20207B"/>
</svg>
